<?xml version="1.0" ?>
<svg xmlns="http://www.w3.org/2000/svg" width="24" height="24" viewBox="0 0 32 32">
    <g id="layer1" transform="translate(-410,-376.64909)">
	    <path fill="white" d="M431,402.6h-10c-2.8,0-5-2.2-5-5v-10c0-2.8,2.2-5,5-5h10c2.8,0,5,2.2,5,5v10 C436.1,400.4,433.9,402.6,431,402.6z M432.6,390l-1.1-1.1c-0.1-0.1-0.4-0.1-0.5,0l-5.6,5.6c-0.1,0.1-0.4,0.1-0.5,0l-2.4-2.5 c-0.1-0.1-0.2-0.1-0.3-0.1c-0.1,0-0.2,0-0.3,0.1l-1.1,1c-0.1,0.1-0.1,0.2-0.1,0.3s0,0.2,0.1,0.3l2.5,2.6c0.1,0.1,0.4,0.4,0.5,0.5	l1.1,1.1c0.1,0.1,0.4,0.1,0.5,0l7.2-7.2C432.6,390.4,432.6,390.2,432.6,390L432.6,390z"/>
    </g>
</svg>